Coordinates
version=1
nRows=33
nColumns=30
inDegrees=yes

Units are S.I. units (second, meters, Newtons, ...)
Angles are in degrees.

endheader
time	floatyaw	floatroll	floatpitch	floatx	floaty	floatz	pro_sup_l	deviation_l	flexion_l	cmc_flexion_l	cmc_abduction_l	mp_flexion_l	ip_flexion_l	2mcp_flexion_l	2mcp_abduction_l	2pm_flexion_l	2md_flexion_l	3mcp_flexion_l	3mcp_abduction_l	3pm_flexion_l	3md_flexion_l	4mcp_flexion_l	4mcp_abduction_l	4pm_flexion_l	4md_flexion_l	5mcp_flexion_l	5mcp_abduction_l	5pm_flexion_l	5md_flexion_l
-0.495000	0.749225	-1.746491	98.520729	-0.096793	-0.186592	-0.019761	88.945338	1.668465	-0.421597	18.242929	3.838561	-21.698190	-34.929985	36.314683	7.345508	47.280098	32.782807	23.447976	4.739882	47.293031	31.586484	14.458526	-4.615622	60.247966	40.728092	11.722511	-8.187961	58.747286	40.213683
-0.485000	0.749225	-1.746491	98.520729	-0.095571	-0.185913	-0.019005	88.949533	1.814137	-0.408130	18.268575	3.964859	-21.662149	-34.886775	36.282334	7.307019	47.300306	32.789247	23.509051	4.754272	47.322123	31.598729	14.584690	-4.622175	60.261042	40.740126	11.851516	-8.160287	58.771770	40.210868
-0.475000	0.749225	-1.746491	98.520729	-0.094272	-0.185238	-0.018205	88.977211	1.965482	-0.399010	18.272238	4.115831	-21.630235	-34.848125	36.249130	7.272981	47.327227	32.798153	23.571837	4.768912	47.375944	31.634240	14.720194	-4.625971	60.305178	40.775754	12.022252	-8.141949	58.809763	40.209449
-0.465000	0.749225	-1.746491	98.520729	-0.092907	-0.184574	-0.017361	89.039081	2.110792	-0.386498	18.265307	4.294668	-21.604009	-34.822565	36.216633	7.243684	47.369318	32.811913	23.637748	4.781219	47.464015	31.699275	14.869507	-4.626052	60.389038	40.841150	12.238812	-8.133381	58.877091	40.214381
-0.455000	0.749225	-1.746491	98.520729	-0.091493	-0.183924	-0.016477	89.142815	2.239385	-0.363652	18.259479	4.502018	-21.585850	-34.817890	36.193190	7.216521	47.431485	32.830912	23.709966	4.790223	47.588921	31.794086	15.038999	-4.622531	60.513985	40.936853	12.495887	-8.130584	58.986123	40.230527
-0.445000	0.749225	-1.746491	98.520729	-0.090046	-0.183289	-0.015558	89.292274	2.344409	-0.323893	18.261399	4.734027	-21.577812	-34.837578	36.189426	7.188080	47.511584	32.852940	23.793755	4.796752	47.743732	31.911349	15.233767	-4.616302	60.673257	41.056311	12.781991	-8.128063	59.139862	40.260343
-0.435000	0.749225	-1.746491	98.520729	-0.088580	-0.182666	-0.014612	89.487109	2.423872	-0.260248	18.270322	4.982415	-21.580394	-34.878824	36.212342	7.156949	47.601358	32.874695	23.896169	4.802481	47.914844	32.038519	15.456062	-4.608804	60.855509	41.188032	13.087176	-8.122030	59.331200	40.302677
-0.425000	0.749225	-1.746491	98.520729	-0.087101	-0.182048	-0.013644	89.722782	2.479916	-0.165478	18.279460	5.237126	-21.592415	-34.933757	36.261859	7.125128	47.692147	32.894886	24.024674	4.808633	48.090545	32.164214	15.707089	-4.602027	61.051045	41.320998	13.412024	-8.111700	59.547352	40.352968
-0.415000	0.749225	-1.746491	98.520729	-0.085604	-0.181433	-0.012657	89.991063	2.517322	-0.033595	18.279880	5.489590	-21.612430	-34.993776	36.332135	7.096648	47.782028	32.916884	24.185268	4.815185	48.270762	32.285562	15.991495	-4.598456	61.256776	41.450587	13.772516	-8.097718	59.776614	40.404637
-0.405000	0.749225	-1.746491	98.520729	-0.084075	-0.180815	-0.011647	90.280690	2.542589	0.137658	18.264777	5.734071	-21.640831	-35.054909	36.416746	7.074121	47.879499	32.948786	24.381779	4.820907	48.471205	32.411871	16.321754	-4.600501	61.476663	41.581526	14.196753	-8.078858	60.014222	40.451363
-0.395000	0.749225	-1.746491	98.520729	-0.082491	-0.180190	-0.010606	90.577738	2.564063	0.344410	18.231876	5.966574	-21.680856	-35.120901	36.514127	7.055717	48.000990	33.000377	24.617612	4.823975	48.717904	32.561648	16.719265	-4.609365	61.717790	41.726023	14.714427	-8.049713	60.265086	40.489639
-0.385000	0.749225	-1.746491	98.520729	-0.080826	-0.179548	-0.009526	90.865820	2.592359	0.575385	18.182910	6.183140	-21.737268	-35.201500	36.629558	7.034846	48.163566	33.078578	24.899044	4.822834	49.034180	32.753762	17.210124	-4.624011	61.985315	41.897846	15.344458	-8.001617	60.542244	40.520488
-0.375000	0.749225	-1.746491	98.520729	-0.079062	-0.178874	-0.008396	91.127022	2.639709	0.812492	18.120794	6.379748	-21.813174	-35.306266	36.772518	7.002805	48.377157	33.184030	25.237207	4.817065	49.427216	32.996913	17.816072	-4.641133	62.279738	42.105085	16.087066	-7.926772	60.861128	40.549035
-0.365000	0.749225	-1.746491	98.520729	-0.077190	-0.178147	-0.007209	91.344623	2.717765	1.033439	18.046613	6.554453	-21.906954	-35.437411	36.951250	6.952702	48.640502	33.310782	25.646176	4.808004	49.882162	33.282859	18.544302	-4.656505	62.597551	42.344786	16.923822	-7.823236	61.231590	40.581523
-0.355000	0.749225	-1.746491	98.520729	-0.075208	-0.177341	-0.005961	91.507735	2.834861	1.216035	17.958911	6.710458	-22.011433	-35.586498	37.167787	6.882479	48.942499	33.449187	26.137117	4.798701	50.367592	33.587251	19.381310	-4.666990	62.933707	42.602029	17.825223	-7.697831	61.651275	40.620966
-0.345000	0.749225	-1.746491	98.520729	-0.073111	-0.176430	-0.004643	91.616175	2.994157	1.343455	17.856413	6.857779	-22.116114	-35.737646	37.415925	6.795485	49.267548	33.590329	26.711488	4.792939	50.849091	33.878047	20.294212	-4.671801	63.283449	42.854372	18.761880	-7.565332	62.103688	40.663800
-0.335000	0.749225	-1.746491	98.520729	-0.070880	-0.175389	-0.003242	91.682508	3.193175	1.409349	17.742687	7.011546	-22.211280	-35.875469	37.682630	6.698117	49.601684	33.729577	27.357760	4.793606	51.302564	34.127283	21.239068	-4.672017	63.642294	43.080184	19.713757	-7.444302	62.561993	40.699724
-0.325000	0.749225	-1.746491	98.520729	-0.068483	-0.174194	-0.001739	91.728818	3.424386	1.421215	17.629299	7.186988	-22.291385	-35.992420	37.951603	6.595488	49.936097	33.867453	28.054535	4.801404	51.719570	34.320143	22.172806	-4.668772	64.004887	43.266859	20.673105	-7.351387	62.996915	40.715388
-0.315000	0.749225	-1.746491	98.520729	-0.065873	-0.172824	-0.000112	91.778605	3.676555	1.400398	17.534547	7.393760	-22.355708	-36.090742	38.207220	6.487469	50.266264	34.007387	28.779147	4.814880	52.102826	34.456915	23.064806	-4.661710	64.364059	43.414230	21.640713	-7.296234	63.385710	40.700480
-0.305000	0.749225	-1.746491	98.520729	-0.063005	-0.171261	0.001657	91.847387	3.937084	1.377773	17.477529	7.633472	-22.406415	-36.178321	38.437578	6.367776	50.587783	34.151677	29.517274	4.831887	52.456402	34.547825	23.905002	-4.649101	64.710644	43.531197	22.619293	-7.278577	63.719311	40.653223
-0.295000	0.749225	-1.746491	98.520729	-0.059836	-0.169490	0.003584	91.936765	4.195310	1.385536	17.470336	7.902250	-22.445908	-36.262124	38.636254	6.227025	50.892481	34.298268	30.268231	4.851349	52.777850	34.605090	24.706228	-4.629603	65.034242	43.628366	23.608921	-7.287975	64.005845	40.582440
-0.285000	0.749225	-1.746491	98.520729	-0.056332	-0.167509	0.005681	92.034895	4.445771	1.447147	17.512523	8.196444	-22.475239	-36.343958	38.802836	6.057999	51.168348	34.440677	31.042756	4.873969	53.057641	34.637946	25.499617	-4.604279	65.325747	43.712336	24.606864	-7.305958	64.269823	40.505024
-0.275000	0.749225	-1.746491	98.520729	-0.052468	-0.165331	0.007959	92.122678	4.690131	1.568483	17.590906	8.517798	-22.494147	-36.421137	38.942457	5.860040	51.403995	34.571389	31.854129	4.901417	53.286655	34.653785	26.324142	-4.577416	65.582162	43.785500	25.611113	-7.310282	64.547257	40.439847
-0.265000	0.749225	-1.746491	98.520729	-0.048227	-0.162988	0.010427	92.182235	4.937252	1.733334	17.684846	8.875853	-22.502553	-36.491412	39.064840	5.640410	51.594911	34.686696	32.707339	4.934798	53.467844	34.663958	27.214300	-4.555514	65.812449	43.850751	26.625865	-7.280798	64.878005	40.400852
-0.255000	0.749225	-1.746491	98.520729	-0.043609	-0.160532	0.013092	92.204006	5.201874	1.905207	17.774067	9.287585	-22.503272	-36.559437	39.183562	5.412436	51.747521	34.790136	33.592714	4.973649	53.625666	34.689411	28.191054	-4.544915	66.041241	43.917421	27.667187	-7.205587	65.297588	40.392402
-0.245000	0.749225	-1.746491	98.520729	-0.038631	-0.158029	0.015950	92.190600	5.502517	2.035550	17.844876	9.774748	-22.504983	-36.641238	39.315916	5.191602	51.878654	34.892687	34.488244	5.016133	53.806798	34.760905	29.258964	-4.549156	66.307177	44.004613	28.765999	-7.085010	65.830394	40.408744
-0.235000	0.749225	-1.746491	98.520729	-0.033326	-0.155546	0.018989	92.157501	5.858532	2.076443	17.892232	10.358672	-22.523264	-36.763502	39.482649	4.991302	52.010783	35.009855	35.369499	5.060054	54.068424	34.911433	30.408714	-4.567363	66.654176	44.139634	29.964327	-6.931417	66.484871	40.437273
-0.225000	0.749225	-1.746491	98.520729	-0.027740	-0.153135	0.022190	92.131473	6.285695	1.994060	17.918312	11.052439	-22.577347	-36.956410	39.705782	4.819977	52.165570	35.157054	36.221015	5.103690	54.456482	35.163278	31.622069	-4.594634	67.116989	44.351160	31.302614	-6.764054	67.250861	40.463788
-0.215000	0.749225	-1.746491	98.520729	-0.021922	-0.150827	0.025536	92.147016	6.790344	1.778447	17.930303	11.852011	-22.682674	-37.242136	40.003395	4.680852	52.358882	35.345059	37.042274	5.145712	54.984007	35.516549	32.876871	-4.624340	67.706767	44.659376	32.801874	-6.601499	68.100572	40.477660
-0.205000	0.749225	-1.746491	98.520729	-0.015922	-0.148633	0.029012	92.240825	7.363688	1.446172	17.939191	12.730127	-22.843012	-37.624488	40.382897	4.573915	52.599681	35.577141	37.845381	5.184331	55.623231	35.946931	34.151501	-4.651085	68.405622	45.068203	34.450812	-6.455575	68.995306	40.475164
-0.195000	0.749225	-1.746491	98.520729	-0.009798	-0.146558	0.032597	92.444721	7.979168	1.035319	17.958589	13.637941	-23.047389	-38.085631	40.836541	4.498349	52.893130	35.849248	38.646869	5.216601	56.319273	36.416159	35.429327	-4.672643	69.176490	45.564996	36.208361	-6.329699	69.897536	40.459672
-0.185000	0.749225	-1.746491	98.520729	-0.003614	-0.144622	0.036263	92.778647	8.595180	0.595369	18.001495	14.516922	-23.274491	-38.592250	41.342431	4.453670	53.245661	36.153815	39.458870	5.238786	57.019645	36.891054	36.703316	-4.690024	69.984823	46.128779	38.023561	-6.221578	70.783609	40.438483
-0.175000	0.749225	-1.746491	98.520729	0.002552	-0.142866	0.039967	93.246010	9.163232	0.175860	18.074749	15.317543	-23.502339	-39.108202	41.871136	4.439201	53.667985	36.485769	40.284410	5.247879	57.702332	37.360629	37.979286	-4.706056	70.819065	46.741863	39.862071	-6.127444	71.650744	40.418015
